<svg xmlns="http://www.w3.org/2000/svg" xmlns:xlink="http://www.w3.org/1999/xlink" width="350" zoomAndPan="magnify" viewBox="0 0 262.5 112.499997" height="150" preserveAspectRatio="xMidYMid meet" version="1.0"><defs><g/></defs><g fill="#ffa603" fill-opacity="1"><g transform="translate(0.331862, 80.989615)"><g><path d="M 26 -28.375 C 26.332031 -28.375 26.582031 -28.445312 26.75 -28.59375 C 26.914062 -28.75 27.078125 -28.828125 27.234375 -28.828125 C 27.566406 -28.828125 27.800781 -28.628906 27.9375 -28.234375 C 28.070312 -27.835938 28.140625 -27.378906 28.140625 -26.859375 C 28.140625 -26.378906 28.070312 -25.796875 27.9375 -25.109375 C 27.800781 -24.421875 27.601562 -23.765625 27.34375 -23.140625 C 27.082031 -22.515625 26.773438 -21.976562 26.421875 -21.53125 C 26.078125 -21.09375 25.691406 -20.875 25.265625 -20.875 L 5.984375 -20.875 C 5.523438 -20.875 5.160156 -21.132812 4.890625 -21.65625 C 4.617188 -22.175781 4.484375 -22.785156 4.484375 -23.484375 C 4.484375 -23.910156 4.535156 -24.40625 4.640625 -24.96875 C 4.742188 -25.53125 4.910156 -26.0625 5.140625 -26.5625 C 5.367188 -27.070312 5.640625 -27.5 5.953125 -27.84375 C 6.273438 -28.195312 6.664062 -28.375 7.125 -28.375 Z M 26 -28.375 "/></g></g></g><g fill="#ffa603" fill-opacity="1"><g transform="translate(33.094068, 80.989615)"><g><path d="M 10.375 -27.6875 C 10.707031 -28.332031 11.03125 -29.191406 11.34375 -30.265625 C 11.664062 -31.347656 11.972656 -32.546875 12.265625 -33.859375 C 12.554688 -35.171875 12.820312 -36.539062 13.0625 -37.96875 C 13.3125 -39.40625 13.523438 -40.804688 13.703125 -42.171875 C 13.890625 -43.546875 14.035156 -44.832031 14.140625 -46.03125 C 14.242188 -47.238281 14.296875 -48.269531 14.296875 -49.125 C 14.296875 -52.226562 14.066406 -54.503906 13.609375 -55.953125 C 13.160156 -57.398438 12.550781 -58.125 11.78125 -58.125 C 11.539062 -58.125 11.328125 -58 11.140625 -57.75 C 10.960938 -57.507812 10.8125 -57.195312 10.6875 -56.8125 C 10.570312 -56.4375 10.488281 -56.023438 10.4375 -55.578125 C 10.394531 -55.140625 10.375 -54.738281 10.375 -54.375 Z M 23.671875 -13.578125 C 23.847656 -14.484375 24.125 -15.140625 24.5 -15.546875 C 24.882812 -15.960938 25.296875 -16.191406 25.734375 -16.234375 C 26.179688 -16.285156 26.632812 -16.179688 27.09375 -15.921875 C 27.550781 -15.660156 27.945312 -15.316406 28.28125 -14.890625 C 28.613281 -14.460938 28.863281 -13.984375 29.03125 -13.453125 C 29.195312 -12.921875 29.222656 -12.394531 29.109375 -11.875 C 28.679688 -10.625 28.070312 -9.160156 27.28125 -7.484375 C 26.488281 -5.816406 25.484375 -4.234375 24.265625 -2.734375 C 23.046875 -1.242188 21.613281 0.015625 19.96875 1.046875 C 18.320312 2.085938 16.429688 2.609375 14.296875 2.609375 C 12.503906 2.609375 10.921875 2.3125 9.546875 1.71875 C 8.179688 1.125 7.03125 0.285156 6.09375 -0.796875 C 5.164062 -1.878906 4.46875 -3.171875 4 -4.671875 C 3.53125 -6.179688 3.296875 -7.867188 3.296875 -9.734375 L 3.296875 -52.3125 C 3.296875 -54.050781 3.515625 -55.660156 3.953125 -57.140625 C 4.390625 -58.617188 4.992188 -59.878906 5.765625 -60.921875 C 6.546875 -61.972656 7.453125 -62.796875 8.484375 -63.390625 C 9.523438 -63.992188 10.625 -64.296875 11.78125 -64.296875 C 13.15625 -64.296875 14.3125 -64.039062 15.25 -63.53125 C 16.195312 -63.03125 16.972656 -62.367188 17.578125 -61.546875 C 18.191406 -60.722656 18.675781 -59.773438 19.03125 -58.703125 C 19.382812 -57.640625 19.632812 -56.550781 19.78125 -55.4375 C 19.9375 -54.332031 20.03125 -53.238281 20.0625 -52.15625 C 20.09375 -51.070312 20.109375 -50.085938 20.109375 -49.203125 C 20.109375 -46.921875 19.894531 -44.523438 19.46875 -42.015625 C 19.039062 -39.503906 18.5 -37.03125 17.84375 -34.59375 C 17.1875 -32.15625 16.46875 -29.816406 15.6875 -27.578125 C 14.914062 -25.335938 14.171875 -23.347656 13.453125 -21.609375 C 12.734375 -19.878906 12.09375 -18.460938 11.53125 -17.359375 C 10.96875 -16.265625 10.582031 -15.625 10.375 -15.4375 L 10.375 -10 C 10.375 -8.113281 10.769531 -6.566406 11.5625 -5.359375 C 12.351562 -4.160156 13.617188 -3.5625 15.359375 -3.5625 C 16.421875 -3.5625 17.414062 -3.890625 18.34375 -4.546875 C 19.269531 -5.203125 20.09375 -6.023438 20.8125 -7.015625 C 21.53125 -8.003906 22.128906 -9.082031 22.609375 -10.25 C 23.097656 -11.425781 23.453125 -12.535156 23.671875 -13.578125 Z M 23.671875 -13.578125 "/></g></g></g><g fill="#ffa603" fill-opacity="1"><g transform="translate(53.701817, 80.989615)"><g><path d="M 29.75 -3.5625 C 30.6875 -3.5625 31.5 -3.894531 32.1875 -4.5625 C 32.875 -5.238281 33.46875 -6.078125 33.96875 -7.078125 C 34.46875 -8.085938 34.878906 -9.175781 35.203125 -10.34375 C 35.523438 -11.519531 35.789062 -12.625 36 -13.65625 C 36.21875 -14.632812 36.53125 -15.34375 36.9375 -15.78125 C 37.351562 -16.226562 37.804688 -16.453125 38.296875 -16.453125 C 38.660156 -16.453125 39.03125 -16.335938 39.40625 -16.109375 C 39.789062 -15.878906 40.140625 -15.582031 40.453125 -15.21875 C 40.773438 -14.851562 41.035156 -14.441406 41.234375 -13.984375 C 41.429688 -13.523438 41.53125 -13.066406 41.53125 -12.609375 C 41.53125 -12.546875 41.53125 -12.46875 41.53125 -12.375 C 41.53125 -12.289062 41.5 -12.15625 41.4375 -11.96875 C 41.039062 -10.414062 40.5 -8.785156 39.8125 -7.078125 C 39.132812 -5.378906 38.257812 -3.8125 37.1875 -2.375 C 36.125 -0.945312 34.835938 0.238281 33.328125 1.1875 C 31.828125 2.132812 30.070312 2.609375 28.0625 2.609375 C 26.414062 2.609375 24.984375 2.253906 23.765625 1.546875 C 22.546875 0.847656 21.582031 -0.078125 20.875 -1.234375 C 19.9375 -0.171875 18.800781 0.734375 17.46875 1.484375 C 16.144531 2.234375 14.601562 2.609375 12.84375 2.609375 C 11.007812 2.609375 9.398438 2.238281 8.015625 1.5 C 6.628906 0.769531 5.460938 -0.222656 4.515625 -1.484375 C 3.578125 -2.742188 2.867188 -4.234375 2.390625 -5.953125 C 1.921875 -7.679688 1.6875 -9.535156 1.6875 -11.515625 C 1.6875 -15.410156 2.3125 -18.910156 3.5625 -22.015625 C 4.8125 -25.128906 6.472656 -27.773438 8.546875 -29.953125 C 10.617188 -32.128906 12.984375 -33.796875 15.640625 -34.953125 C 18.304688 -36.109375 21.070312 -36.6875 23.9375 -36.6875 C 25.21875 -36.6875 26.253906 -36.335938 27.046875 -35.640625 C 27.835938 -34.941406 28.234375 -33.984375 28.234375 -32.765625 C 28.234375 -31.972656 28.148438 -31.414062 27.984375 -31.09375 C 27.816406 -30.769531 27.503906 -30.609375 27.046875 -30.609375 C 26.617188 -30.609375 26.175781 -30.640625 25.71875 -30.703125 C 25.269531 -30.765625 24.800781 -30.796875 24.3125 -30.796875 C 22.539062 -30.796875 20.738281 -30.40625 18.90625 -29.625 C 17.082031 -28.851562 15.429688 -27.664062 13.953125 -26.0625 C 12.484375 -24.46875 11.273438 -22.441406 10.328125 -19.984375 C 9.378906 -17.535156 8.90625 -14.617188 8.90625 -11.234375 C 8.90625 -8.773438 9.378906 -6.878906 10.328125 -5.546875 C 11.273438 -4.222656 12.566406 -3.5625 14.203125 -3.5625 C 15.484375 -3.5625 16.550781 -4.039062 17.40625 -5 C 18.257812 -5.957031 18.945312 -7.09375 19.46875 -8.40625 L 19.46875 -22.84375 C 19.46875 -23.300781 19.441406 -23.679688 19.390625 -23.984375 C 19.347656 -24.296875 19.300781 -24.554688 19.25 -24.765625 C 19.207031 -24.972656 19.171875 -25.160156 19.140625 -25.328125 C 19.109375 -25.503906 19.09375 -25.664062 19.09375 -25.8125 C 19.09375 -26.300781 19.328125 -26.691406 19.796875 -26.984375 C 20.273438 -27.273438 20.847656 -27.421875 21.515625 -27.421875 C 23.066406 -27.421875 24.300781 -27.015625 25.21875 -26.203125 C 26.132812 -25.398438 26.59375 -24.429688 26.59375 -23.296875 L 26.59375 -7.859375 C 26.59375 -7.335938 26.648438 -6.828125 26.765625 -6.328125 C 26.890625 -5.828125 27.070312 -5.367188 27.3125 -4.953125 C 27.5625 -4.546875 27.890625 -4.210938 28.296875 -3.953125 C 28.710938 -3.691406 29.195312 -3.5625 29.75 -3.5625 Z M 29.75 -3.5625 "/></g></g></g><g fill="#ffa603" fill-opacity="1"><g transform="translate(86.82957, 80.989615)"><g><path d="M 10.375 -27.6875 C 10.707031 -28.332031 11.03125 -29.191406 11.34375 -30.265625 C 11.664062 -31.347656 11.972656 -32.546875 12.265625 -33.859375 C 12.554688 -35.171875 12.820312 -36.539062 13.0625 -37.96875 C 13.3125 -39.40625 13.523438 -40.804688 13.703125 -42.171875 C 13.890625 -43.546875 14.035156 -44.832031 14.140625 -46.03125 C 14.242188 -47.238281 14.296875 -48.269531 14.296875 -49.125 C 14.296875 -52.226562 14.066406 -54.503906 13.609375 -55.953125 C 13.160156 -57.398438 12.550781 -58.125 11.78125 -58.125 C 11.539062 -58.125 11.328125 -58 11.140625 -57.75 C 10.960938 -57.507812 10.8125 -57.195312 10.6875 -56.8125 C 10.570312 -56.4375 10.488281 -56.023438 10.4375 -55.578125 C 10.394531 -55.140625 10.375 -54.738281 10.375 -54.375 Z M 23.671875 -13.578125 C 23.847656 -14.484375 24.125 -15.140625 24.5 -15.546875 C 24.882812 -15.960938 25.296875 -16.191406 25.734375 -16.234375 C 26.179688 -16.285156 26.632812 -16.179688 27.09375 -15.921875 C 27.550781 -15.660156 27.945312 -15.316406 28.28125 -14.890625 C 28.613281 -14.460938 28.863281 -13.984375 29.03125 -13.453125 C 29.195312 -12.921875 29.222656 -12.394531 29.109375 -11.875 C 28.679688 -10.625 28.070312 -9.160156 27.28125 -7.484375 C 26.488281 -5.816406 25.484375 -4.234375 24.265625 -2.734375 C 23.046875 -1.242188 21.613281 0.015625 19.96875 1.046875 C 18.320312 2.085938 16.429688 2.609375 14.296875 2.609375 C 12.503906 2.609375 10.921875 2.3125 9.546875 1.71875 C 8.179688 1.125 7.03125 0.285156 6.09375 -0.796875 C 5.164062 -1.878906 4.46875 -3.171875 4 -4.671875 C 3.53125 -6.179688 3.296875 -7.867188 3.296875 -9.734375 L 3.296875 -52.3125 C 3.296875 -54.050781 3.515625 -55.660156 3.953125 -57.140625 C 4.390625 -58.617188 4.992188 -59.878906 5.765625 -60.921875 C 6.546875 -61.972656 7.453125 -62.796875 8.484375 -63.390625 C 9.523438 -63.992188 10.625 -64.296875 11.78125 -64.296875 C 13.15625 -64.296875 14.3125 -64.039062 15.25 -63.53125 C 16.195312 -63.03125 16.972656 -62.367188 17.578125 -61.546875 C 18.191406 -60.722656 18.675781 -59.773438 19.03125 -58.703125 C 19.382812 -57.640625 19.632812 -56.550781 19.78125 -55.4375 C 19.9375 -54.332031 20.03125 -53.238281 20.0625 -52.15625 C 20.09375 -51.070312 20.109375 -50.085938 20.109375 -49.203125 C 20.109375 -46.921875 19.894531 -44.523438 19.46875 -42.015625 C 19.039062 -39.503906 18.5 -37.03125 17.84375 -34.59375 C 17.1875 -32.15625 16.46875 -29.816406 15.6875 -27.578125 C 14.914062 -25.335938 14.171875 -23.347656 13.453125 -21.609375 C 12.734375 -19.878906 12.09375 -18.460938 11.53125 -17.359375 C 10.96875 -16.265625 10.582031 -15.625 10.375 -15.4375 L 10.375 -10 C 10.375 -8.113281 10.769531 -6.566406 11.5625 -5.359375 C 12.351562 -4.160156 13.617188 -3.5625 15.359375 -3.5625 C 16.421875 -3.5625 17.414062 -3.890625 18.34375 -4.546875 C 19.269531 -5.203125 20.09375 -6.023438 20.8125 -7.015625 C 21.53125 -8.003906 22.128906 -9.082031 22.609375 -10.25 C 23.097656 -11.425781 23.453125 -12.535156 23.671875 -13.578125 Z M 23.671875 -13.578125 "/></g></g></g><g fill="#ffa603" fill-opacity="1"><g transform="translate(107.437319, 80.989615)"><g><path d="M 29.75 -3.5625 C 30.6875 -3.5625 31.5 -3.894531 32.1875 -4.5625 C 32.875 -5.238281 33.46875 -6.078125 33.96875 -7.078125 C 34.46875 -8.085938 34.878906 -9.175781 35.203125 -10.34375 C 35.523438 -11.519531 35.789062 -12.625 36 -13.65625 C 36.21875 -14.632812 36.53125 -15.34375 36.9375 -15.78125 C 37.351562 -16.226562 37.804688 -16.453125 38.296875 -16.453125 C 38.660156 -16.453125 39.03125 -16.335938 39.40625 -16.109375 C 39.789062 -15.878906 40.140625 -15.582031 40.453125 -15.21875 C 40.773438 -14.851562 41.035156 -14.441406 41.234375 -13.984375 C 41.429688 -13.523438 41.53125 -13.066406 41.53125 -12.609375 C 41.53125 -12.546875 41.53125 -12.46875 41.53125 -12.375 C 41.53125 -12.289062 41.5 -12.15625 41.4375 -11.96875 C 41.039062 -10.414062 40.5 -8.785156 39.8125 -7.078125 C 39.132812 -5.378906 38.257812 -3.8125 37.1875 -2.375 C 36.125 -0.945312 34.835938 0.238281 33.328125 1.1875 C 31.828125 2.132812 30.070312 2.609375 28.0625 2.609375 C 26.414062 2.609375 24.984375 2.253906 23.765625 1.546875 C 22.546875 0.847656 21.582031 -0.078125 20.875 -1.234375 C 19.9375 -0.171875 18.800781 0.734375 17.46875 1.484375 C 16.144531 2.234375 14.601562 2.609375 12.84375 2.609375 C 11.007812 2.609375 9.398438 2.238281 8.015625 1.5 C 6.628906 0.769531 5.460938 -0.222656 4.515625 -1.484375 C 3.578125 -2.742188 2.867188 -4.234375 2.390625 -5.953125 C 1.921875 -7.679688 1.6875 -9.535156 1.6875 -11.515625 C 1.6875 -15.410156 2.3125 -18.910156 3.5625 -22.015625 C 4.8125 -25.128906 6.472656 -27.773438 8.546875 -29.953125 C 10.617188 -32.128906 12.984375 -33.796875 15.640625 -34.953125 C 18.304688 -36.109375 21.070312 -36.6875 23.9375 -36.6875 C 25.21875 -36.6875 26.253906 -36.335938 27.046875 -35.640625 C 27.835938 -34.941406 28.234375 -33.984375 28.234375 -32.765625 C 28.234375 -31.972656 28.148438 -31.414062 27.984375 -31.09375 C 27.816406 -30.769531 27.503906 -30.609375 27.046875 -30.609375 C 26.617188 -30.609375 26.175781 -30.640625 25.71875 -30.703125 C 25.269531 -30.765625 24.800781 -30.796875 24.3125 -30.796875 C 22.539062 -30.796875 20.738281 -30.40625 18.90625 -29.625 C 17.082031 -28.851562 15.429688 -27.664062 13.953125 -26.0625 C 12.484375 -24.46875 11.273438 -22.441406 10.328125 -19.984375 C 9.378906 -17.535156 8.90625 -14.617188 8.90625 -11.234375 C 8.90625 -8.773438 9.378906 -6.878906 10.328125 -5.546875 C 11.273438 -4.222656 12.566406 -3.5625 14.203125 -3.5625 C 15.484375 -3.5625 16.550781 -4.039062 17.40625 -5 C 18.257812 -5.957031 18.945312 -7.09375 19.46875 -8.40625 L 19.46875 -22.84375 C 19.46875 -23.300781 19.441406 -23.679688 19.390625 -23.984375 C 19.347656 -24.296875 19.300781 -24.554688 19.25 -24.765625 C 19.207031 -24.972656 19.171875 -25.160156 19.140625 -25.328125 C 19.109375 -25.503906 19.09375 -25.664062 19.09375 -25.8125 C 19.09375 -26.300781 19.328125 -26.691406 19.796875 -26.984375 C 20.273438 -27.273438 20.847656 -27.421875 21.515625 -27.421875 C 23.066406 -27.421875 24.300781 -27.015625 25.21875 -26.203125 C 26.132812 -25.398438 26.59375 -24.429688 26.59375 -23.296875 L 26.59375 -7.859375 C 26.59375 -7.335938 26.648438 -6.828125 26.765625 -6.328125 C 26.890625 -5.828125 27.070312 -5.367188 27.3125 -4.953125 C 27.5625 -4.546875 27.890625 -4.210938 28.296875 -3.953125 C 28.710938 -3.691406 29.195312 -3.5625 29.75 -3.5625 Z M 29.75 -3.5625 "/></g></g></g><g fill="#ffa603" fill-opacity="1"><g transform="translate(140.565072, 80.989615)"><g><path d="M 10.375 -27.6875 C 10.707031 -28.332031 11.03125 -29.191406 11.34375 -30.265625 C 11.664062 -31.347656 11.972656 -32.546875 12.265625 -33.859375 C 12.554688 -35.171875 12.820312 -36.539062 13.0625 -37.96875 C 13.3125 -39.40625 13.523438 -40.804688 13.703125 -42.171875 C 13.890625 -43.546875 14.035156 -44.832031 14.140625 -46.03125 C 14.242188 -47.238281 14.296875 -48.269531 14.296875 -49.125 C 14.296875 -52.226562 14.066406 -54.503906 13.609375 -55.953125 C 13.160156 -57.398438 12.550781 -58.125 11.78125 -58.125 C 11.539062 -58.125 11.328125 -58 11.140625 -57.75 C 10.960938 -57.507812 10.8125 -57.195312 10.6875 -56.8125 C 10.570312 -56.4375 10.488281 -56.023438 10.4375 -55.578125 C 10.394531 -55.140625 10.375 -54.738281 10.375 -54.375 Z M 23.671875 -13.578125 C 23.847656 -14.484375 24.125 -15.140625 24.5 -15.546875 C 24.882812 -15.960938 25.296875 -16.191406 25.734375 -16.234375 C 26.179688 -16.285156 26.632812 -16.179688 27.09375 -15.921875 C 27.550781 -15.660156 27.945312 -15.316406 28.28125 -14.890625 C 28.613281 -14.460938 28.863281 -13.984375 29.03125 -13.453125 C 29.195312 -12.921875 29.222656 -12.394531 29.109375 -11.875 C 28.679688 -10.625 28.070312 -9.160156 27.28125 -7.484375 C 26.488281 -5.816406 25.484375 -4.234375 24.265625 -2.734375 C 23.046875 -1.242188 21.613281 0.015625 19.96875 1.046875 C 18.320312 2.085938 16.429688 2.609375 14.296875 2.609375 C 12.503906 2.609375 10.921875 2.3125 9.546875 1.71875 C 8.179688 1.125 7.03125 0.285156 6.09375 -0.796875 C 5.164062 -1.878906 4.46875 -3.171875 4 -4.671875 C 3.53125 -6.179688 3.296875 -7.867188 3.296875 -9.734375 L 3.296875 -52.3125 C 3.296875 -54.050781 3.515625 -55.660156 3.953125 -57.140625 C 4.390625 -58.617188 4.992188 -59.878906 5.765625 -60.921875 C 6.546875 -61.972656 7.453125 -62.796875 8.484375 -63.390625 C 9.523438 -63.992188 10.625 -64.296875 11.78125 -64.296875 C 13.15625 -64.296875 14.3125 -64.039062 15.25 -63.53125 C 16.195312 -63.03125 16.972656 -62.367188 17.578125 -61.546875 C 18.191406 -60.722656 18.675781 -59.773438 19.03125 -58.703125 C 19.382812 -57.640625 19.632812 -56.550781 19.78125 -55.4375 C 19.9375 -54.332031 20.03125 -53.238281 20.0625 -52.15625 C 20.09375 -51.070312 20.109375 -50.085938 20.109375 -49.203125 C 20.109375 -46.921875 19.894531 -44.523438 19.46875 -42.015625 C 19.039062 -39.503906 18.5 -37.03125 17.84375 -34.59375 C 17.1875 -32.15625 16.46875 -29.816406 15.6875 -27.578125 C 14.914062 -25.335938 14.171875 -23.347656 13.453125 -21.609375 C 12.734375 -19.878906 12.09375 -18.460938 11.53125 -17.359375 C 10.96875 -16.265625 10.582031 -15.625 10.375 -15.4375 L 10.375 -10 C 10.375 -8.113281 10.769531 -6.566406 11.5625 -5.359375 C 12.351562 -4.160156 13.617188 -3.5625 15.359375 -3.5625 C 16.421875 -3.5625 17.414062 -3.890625 18.34375 -4.546875 C 19.269531 -5.203125 20.09375 -6.023438 20.8125 -7.015625 C 21.53125 -8.003906 22.128906 -9.082031 22.609375 -10.25 C 23.097656 -11.425781 23.453125 -12.535156 23.671875 -13.578125 Z M 23.671875 -13.578125 "/></g></g></g><g fill="#ffa603" fill-opacity="1"><g transform="translate(161.172821, 80.989615)"><g><path d="M 24.8125 -27.234375 C 24.8125 -25.492188 24.515625 -23.707031 23.921875 -21.875 C 23.328125 -20.050781 22.441406 -18.320312 21.265625 -16.6875 C 20.097656 -15.0625 18.648438 -13.601562 16.921875 -12.3125 C 15.203125 -11.019531 13.21875 -10.035156 10.96875 -9.359375 C 11.269531 -8.566406 11.671875 -7.8125 12.171875 -7.09375 C 12.679688 -6.382812 13.285156 -5.769531 13.984375 -5.25 C 14.679688 -4.738281 15.492188 -4.328125 16.421875 -4.015625 C 17.347656 -3.710938 18.421875 -3.5625 19.640625 -3.5625 C 21.472656 -3.5625 23.039062 -3.90625 24.34375 -4.59375 C 25.65625 -5.28125 26.757812 -6.1875 27.65625 -7.3125 C 28.5625 -8.4375 29.285156 -9.695312 29.828125 -11.09375 C 30.378906 -12.5 30.796875 -13.921875 31.078125 -15.359375 C 31.285156 -16.390625 31.71875 -17.078125 32.375 -17.421875 C 33.03125 -17.773438 33.695312 -17.859375 34.375 -17.671875 C 35.0625 -17.492188 35.65625 -17.109375 36.15625 -16.515625 C 36.664062 -15.921875 36.875 -15.210938 36.78125 -14.390625 C 36.65625 -13.453125 36.445312 -12.375 36.15625 -11.15625 C 35.875 -9.9375 35.441406 -8.703125 34.859375 -7.453125 C 34.285156 -6.203125 33.546875 -4.972656 32.640625 -3.765625 C 31.742188 -2.566406 30.640625 -1.492188 29.328125 -0.546875 C 28.023438 0.398438 26.488281 1.160156 24.71875 1.734375 C 22.945312 2.316406 20.921875 2.609375 18.640625 2.609375 C 16.503906 2.609375 14.4375 2.1875 12.4375 1.34375 C 10.445312 0.507812 8.679688 -0.6875 7.140625 -2.25 C 5.609375 -3.820312 4.378906 -5.757812 3.453125 -8.0625 C 2.523438 -10.363281 2.0625 -12.976562 2.0625 -15.90625 C 2.0625 -18.851562 2.472656 -21.597656 3.296875 -24.140625 C 4.117188 -26.691406 5.195312 -28.894531 6.53125 -30.75 C 7.875 -32.601562 9.394531 -34.054688 11.09375 -35.109375 C 12.800781 -36.160156 14.554688 -36.6875 16.359375 -36.6875 C 17.671875 -36.6875 18.847656 -36.457031 19.890625 -36 C 20.941406 -35.539062 21.832031 -34.894531 22.5625 -34.0625 C 23.300781 -33.226562 23.859375 -32.226562 24.234375 -31.0625 C 24.617188 -29.90625 24.8125 -28.628906 24.8125 -27.234375 Z M 9.734375 -16.171875 C 9.734375 -15.898438 9.75 -15.625 9.78125 -15.34375 C 9.8125 -15.070312 9.828125 -14.785156 9.828125 -14.484375 C 10.984375 -15.035156 12.03125 -15.734375 12.96875 -16.578125 C 13.914062 -17.429688 14.722656 -18.40625 15.390625 -19.5 C 16.066406 -20.601562 16.585938 -21.800781 16.953125 -23.09375 C 17.316406 -24.394531 17.5 -25.742188 17.5 -27.140625 C 17.5 -28.171875 17.320312 -28.976562 16.96875 -29.5625 C 16.625 -30.144531 16.144531 -30.4375 15.53125 -30.4375 C 14.769531 -30.4375 14.09375 -30.175781 13.5 -29.65625 C 12.90625 -29.132812 12.382812 -28.453125 11.9375 -27.609375 C 11.5 -26.773438 11.132812 -25.832031 10.84375 -24.78125 C 10.5625 -23.738281 10.328125 -22.679688 10.140625 -21.609375 C 9.960938 -20.546875 9.84375 -19.535156 9.78125 -18.578125 C 9.71875 -17.617188 9.703125 -16.816406 9.734375 -16.171875 Z M 9.734375 -16.171875 "/></g></g></g><g fill="#ffa603" fill-opacity="1"><g transform="translate(188.954436, 80.989615)"><g><path d="M 3.296875 -31.15625 C 3.296875 -32.039062 3.222656 -32.679688 3.078125 -33.078125 C 2.941406 -33.472656 2.875 -33.835938 2.875 -34.171875 C 2.875 -34.628906 3.117188 -35.003906 3.609375 -35.296875 C 4.097656 -35.585938 4.675781 -35.734375 5.34375 -35.734375 C 6.894531 -35.734375 8.117188 -35.328125 9.015625 -34.515625 C 9.921875 -33.710938 10.375 -32.75 10.375 -31.625 L 10.375 -27.421875 C 11.007812 -28.722656 11.703125 -29.9375 12.453125 -31.0625 C 13.203125 -32.195312 14.007812 -33.179688 14.875 -34.015625 C 15.738281 -34.859375 16.664062 -35.515625 17.65625 -35.984375 C 18.644531 -36.453125 19.71875 -36.6875 20.875 -36.6875 C 22.4375 -36.6875 23.71875 -36.394531 24.71875 -35.8125 C 25.726562 -35.238281 26.519531 -34.492188 27.09375 -33.578125 C 27.675781 -32.671875 28.082031 -31.648438 28.3125 -30.515625 C 28.539062 -29.390625 28.65625 -28.296875 28.65625 -27.234375 L 28.65625 -7.859375 C 28.65625 -7.648438 28.664062 -7.304688 28.6875 -6.828125 C 28.71875 -6.359375 28.8125 -5.878906 28.96875 -5.390625 C 29.125 -4.898438 29.359375 -4.472656 29.671875 -4.109375 C 29.992188 -3.742188 30.460938 -3.5625 31.078125 -3.5625 C 32.015625 -3.5625 32.828125 -3.894531 33.515625 -4.5625 C 34.203125 -5.238281 34.796875 -6.078125 35.296875 -7.078125 C 35.796875 -8.085938 36.207031 -9.175781 36.53125 -10.34375 C 36.851562 -11.519531 37.117188 -12.625 37.328125 -13.65625 C 37.515625 -14.632812 37.820312 -15.34375 38.25 -15.78125 C 38.675781 -16.226562 39.113281 -16.453125 39.5625 -16.453125 C 39.9375 -16.453125 40.320312 -16.335938 40.71875 -16.109375 C 41.113281 -15.878906 41.46875 -15.582031 41.78125 -15.21875 C 42.101562 -14.851562 42.363281 -14.441406 42.5625 -13.984375 C 42.757812 -13.523438 42.859375 -13.066406 42.859375 -12.609375 C 42.859375 -12.546875 42.859375 -12.46875 42.859375 -12.375 C 42.859375 -12.289062 42.828125 -12.15625 42.765625 -11.96875 C 42.367188 -10.414062 41.828125 -8.785156 41.140625 -7.078125 C 40.460938 -5.378906 39.582031 -3.8125 38.5 -2.375 C 37.414062 -0.945312 36.125 0.238281 34.625 1.1875 C 33.132812 2.132812 31.382812 2.609375 29.375 2.609375 C 28.125 2.609375 27.019531 2.367188 26.0625 1.890625 C 25.101562 1.421875 24.28125 0.789062 23.59375 0 C 22.914062 -0.789062 22.398438 -1.71875 22.046875 -2.78125 C 21.691406 -3.851562 21.515625 -4.984375 21.515625 -6.171875 L 21.515625 -25.171875 C 21.515625 -25.898438 21.5 -26.582031 21.46875 -27.21875 C 21.445312 -27.863281 21.363281 -28.429688 21.21875 -28.921875 C 21.082031 -29.410156 20.882812 -29.796875 20.625 -30.078125 C 20.363281 -30.367188 20.007812 -30.515625 19.5625 -30.515625 C 18.882812 -30.515625 18.054688 -30.054688 17.078125 -29.140625 C 16.109375 -28.234375 15.148438 -27.046875 14.203125 -25.578125 C 13.265625 -24.117188 12.4375 -22.46875 11.71875 -20.625 C 11 -18.78125 10.550781 -16.929688 10.375 -15.078125 L 10.375 -1.421875 C 10.375 -0.960938 10.363281 -0.492188 10.34375 -0.015625 C 10.332031 0.453125 10.242188 0.875 10.078125 1.25 C 9.910156 1.632812 9.648438 1.957031 9.296875 2.21875 C 8.941406 2.476562 8.429688 2.609375 7.765625 2.609375 C 7.304688 2.609375 6.8125 2.550781 6.28125 2.4375 C 5.75 2.332031 5.257812 2.132812 4.8125 1.84375 C 4.375 1.5625 4.007812 1.148438 3.71875 0.609375 C 3.4375 0.078125 3.296875 -0.628906 3.296875 -1.515625 Z M 3.296875 -31.15625 "/></g></g></g><g fill="#ffa603" fill-opacity="1"><g transform="translate(222.721909, 80.989615)"><g><path d="M 26 -28.375 C 26.332031 -28.375 26.582031 -28.445312 26.75 -28.59375 C 26.914062 -28.75 27.078125 -28.828125 27.234375 -28.828125 C 27.566406 -28.828125 27.800781 -28.628906 27.9375 -28.234375 C 28.070312 -27.835938 28.140625 -27.378906 28.140625 -26.859375 C 28.140625 -26.378906 28.070312 -25.796875 27.9375 -25.109375 C 27.800781 -24.421875 27.601562 -23.765625 27.34375 -23.140625 C 27.082031 -22.515625 26.773438 -21.976562 26.421875 -21.53125 C 26.078125 -21.09375 25.691406 -20.875 25.265625 -20.875 L 5.984375 -20.875 C 5.523438 -20.875 5.160156 -21.132812 4.890625 -21.65625 C 4.617188 -22.175781 4.484375 -22.785156 4.484375 -23.484375 C 4.484375 -23.910156 4.535156 -24.40625 4.640625 -24.96875 C 4.742188 -25.53125 4.910156 -26.0625 5.140625 -26.5625 C 5.367188 -27.070312 5.640625 -27.5 5.953125 -27.84375 C 6.273438 -28.195312 6.664062 -28.375 7.125 -28.375 Z M 26 -28.375 "/></g></g></g></svg>